<svg height="512" viewBox="0 0 512 512" width="512" xmlns="http://www.w3.org/2000/svg"><g id="Flat"><path d="m398.26 131.45126-31.71 118.33984-118.34-31.70996 47.2-27.25-39.55981-68.52-36.9502-64 .00115-.002c16.42153-28.44309 57.47574-28.44261 73.8966.00087l58.03243 100.52114z" fill="#a0cc00"/><path d="m434.7744 432h-116.15428v54.62988l-86.62012-86.62988 86.62012-86.62988v54.62988h153.09988v.00006c16.42558 28.44258-4.10082 63.99994-36.9456 63.99994z" fill="#a0cc00"/><path d="m200 368v64h-122.99l36.95-64z" fill="#85b200"/><path d="m200.93953 326.85986-47.42753-27.38368-39.55245 68.52382-36.94995 64h-.01305c-32.84286 0-53.3695-35.5536-36.94778-63.99618l58.04087-100.52736-47.18991-27.24646 118.32984-31.71z" fill="#a0cc00"/><path d="m131.29 368-36.94 64h-17.34l36.95-64z" fill="#719600"/><path d="m471.72 368h-73.9l-.02-.03-8.66-15.01-34.34-59.47 55.42-32 52.83 91.49z" fill="#85b200"/><path d="m212.83 196.824-55.425-32 61.495-106.513 36.951 64z" fill="#85b200"/><g fill="#719600"><path d="m471.72 368-73.92-.03-8.66-15.01 73.91.02z"/><path d="m247.185 137.319-36.956-63.991 8.67-15.016 36.951 63.999z"/></g></g></svg>